<?xml version="1.0" encoding="UTF-8"?>
<svg id="Layer_2" xmlns="http://www.w3.org/2000/svg" viewBox="0 0 73.56 123.73">
  <defs>
    <style>
      .cls-1 {
        fill: #c37937;
      }
    </style>
  </defs>
  <g id="Layer_1-2" data-name="Layer_1">
    <g>
      <path class="cls-1" d="M12.89,81.97h-.68v15.77h5.02v-.21s.03,0,.04,0v-10.55h3.28c.72.06,1.44.07,2.14,0h2.38v22.81H5.29l-.28-64.64h20.06v21.89h5.02v-26.35H0v74.11h30.09v-32.88H13.1c-.08,0-.14.01-.2.04Z"/>
      <polygon class="cls-1" points="43.47 56.99 43.47 66.05 43.47 67.05 48.48 67.05 48.48 66.05 48.48 56.99 48.48 45.16 69.1 45.16 69.1 109.8 48.48 109.8 48.48 84.16 43.47 84.16 43.47 114.81 73.56 114.81 73.56 40.7 43.47 40.7 43.47 56.99"/>
      <path class="cls-1" d="M3.06,36.8h70.49L37.06,0,0,36.81h.29c1.58,0,2.18-.04,2.78,0ZM37.06,5.05l27.58,27.85H8.92L37.06,5.05Z"/>
      <path class="cls-1" d="M60.97,121.21v-2.49h-21.96V40.7h-4.46v30.65H12.22v5.02h22.33v47.37h26.42v-2.17c0-.12,0-.23,0-.35Z"/>
    </g>
  </g>
</svg>